<svg width="1263" height="716" viewBox="0 0 1263 716" fill="none" xmlns="http://www.w3.org/2000/svg">
<path d="M1234.94 2.00165C1214.27 5.60165 1148.27 18.935 1145.34 20.0017C1143.34 20.8017 1141.87 20.4016 1140.14 18.4016C1136.67 14.535 1131.61 15.0683 1130.01 19.6016C1128.67 23.0683 1127.47 23.4683 1106.01 28.2683C1080.81 33.8683 1042.54 45.2016 1037.47 48.4016C1033.47 51.2016 1033.34 54.8017 1037.34 59.0683L1040.41 62.4016L1055.07 60.535C1070.54 58.4016 1098.67 53.335 1113.61 49.8683C1125.87 47.0683 1125.47 46.8016 1124.41 54.8016C1120.54 86.2683 1116.94 123.335 1115.61 144.535C1114.81 158.402 1112.94 184.002 1111.34 201.202C1109.74 218.402 1108.41 236.668 1108.41 241.868L1108.27 251.202H1115.61C1122.81 251.202 1122.81 251.202 1123.74 246.535C1126.14 235.335 1130.94 171.735 1135.21 96.535C1135.74 86.935 1136.41 80.4016 1136.67 81.735C1138.54 90.6683 1129.34 226.135 1125.47 244.668C1124.81 247.868 1125.21 249.068 1126.94 249.735C1128.27 250.135 1129.61 250.402 1129.87 250.002C1130.94 248.935 1135.47 202.135 1137.61 170.535C1138.67 153.335 1140.14 120.935 1140.94 98.535C1142.54 50.2683 1143.07 44.135 1146.14 43.335C1147.34 42.935 1151.87 42.0017 1156.27 41.2017C1160.67 40.535 1166.67 39.335 1169.61 38.6683C1176.81 37.0683 1212.94 30.0016 1231.07 26.6683C1239.21 25.0683 1249.61 23.4683 1254.14 23.0683C1260.67 22.2683 1262.27 21.735 1262.01 20.0017C1261.61 18.2683 1260.14 18.0016 1254.94 18.2683C1246.27 18.8016 1217.74 23.8683 1177.07 32.0017C1159.07 35.6017 1144.27 38.2683 1144.01 38.0017C1142.81 36.8017 1209.74 23.335 1241.21 18.2683C1259.87 15.335 1260.81 15.0683 1261.34 11.8683C1262.14 8.00165 1259.34 1.86831 1256.27 0.668305C1253.07 -0.531695 1247.21 -0.131685 1234.94 2.00165Z" fill="white"/>
<path d="M1009.47 74.5351C1009.87 76.4018 1025.74 149.068 1044.94 236.135L1079.87 394.402L1044.94 552.802C1025.74 639.868 1009.74 712.402 1009.34 713.868C1008.94 715.602 1009.07 716.135 1010.01 715.202C1011.61 713.602 1148.94 396.402 1148.94 394.268C1148.94 392.535 1013.74 79.7351 1010.67 74.5351L1008.81 71.2018L1009.47 74.5351Z" fill="white"/>
<path d="M137.205 75.4685C136.538 76.8018 105.205 148.802 67.6051 235.602C22.9384 338.802 -0.394942 394.402 0.00505762 396.269C0.938391 400.802 136.938 713.735 138.538 715.202C139.605 716.135 139.738 715.869 139.338 714.535C138.938 713.469 122.938 640.935 103.605 553.602L68.5384 394.535L104.005 234.268C123.472 146.002 139.205 73.6018 138.938 73.4685C138.672 73.2018 137.872 74.1352 137.205 75.4685Z" fill="white"/>
<path d="M616.938 77.2017C615.738 78.0017 588.938 78.5351 548.138 78.5351C474.538 78.5351 476.405 78.2684 477.205 86.5351C477.472 90.2684 478.538 91.6017 482.005 93.3351C490.138 97.4684 500.138 113.602 506.005 131.868C508.405 139.602 508.805 144.935 509.338 184.535C509.738 210.535 509.472 236.135 508.672 247.202C507.605 261.068 507.738 285.602 509.072 343.202C511.205 431.202 511.205 440.402 510.138 564.535C509.338 651.068 508.272 675.068 504.938 681.335C503.472 683.868 490.272 693.735 482.272 698.135C474.005 702.668 472.538 710.935 479.338 714.268C480.538 714.802 493.605 714.935 508.272 714.402C552.138 712.802 600.405 713.068 610.005 714.802C618.672 716.402 618.672 716.402 621.738 712.668C626.138 707.602 626.005 701.868 621.338 698.935C609.738 691.868 604.805 682.935 602.405 664.402C601.472 657.868 601.072 623.735 601.205 573.868C601.338 513.468 600.805 483.202 599.072 450.535C597.072 411.202 596.938 394.535 598.272 272.535C599.072 198.402 600.272 133.335 601.072 127.868C603.205 111.335 607.872 103.868 624.138 91.4684C627.738 88.6684 628.938 86.8017 628.938 83.8684C628.938 77.8684 622.005 74.0017 616.938 77.2017Z" fill="white"/>
<path d="M302.272 159.335C270.672 166.135 236.405 199.868 209.738 250.535C183.472 300.535 161.072 373.335 152.138 437.868C148.938 461.602 148.138 509.068 150.805 525.868C157.872 572.535 180.138 609.602 209.605 624.535C246.138 642.935 294.138 629.602 333.072 590.268C340.138 583.068 346.272 577.202 346.805 577.202C347.205 577.202 350.672 581.868 354.405 587.468C364.005 601.868 386.005 623.335 396.938 629.068C404.005 632.802 407.338 633.735 415.605 634.268C424.805 634.668 426.272 634.402 434.272 630.268C440.405 627.068 443.072 624.935 443.738 622.535C444.138 620.668 446.538 615.868 448.938 611.868C454.138 603.068 455.738 594.935 452.405 593.735C451.205 593.335 447.872 593.868 444.938 595.068C428.938 601.468 413.338 592.535 392.005 564.402C387.605 558.535 381.472 550.002 378.405 545.335L373.072 536.935L386.938 509.468C406.272 470.935 414.405 449.868 423.472 413.868C435.338 366.535 438.805 318.535 432.272 290.535C427.338 268.935 416.138 250.935 401.205 240.135C396.405 236.668 391.072 232.668 389.338 231.202L386.138 228.535L389.605 220.935C391.738 216.268 392.805 212.135 392.272 210.535C390.272 204.402 375.472 184.002 368.405 177.602C358.672 169.068 344.405 161.735 332.272 159.202C320.938 156.802 313.605 156.802 302.272 159.335ZM334.805 206.135C342.805 208.135 355.472 213.868 360.272 217.868L362.938 220.002L360.272 219.335C342.805 214.935 322.538 215.202 309.605 220.002C300.138 223.468 287.072 235.735 282.538 245.202C279.338 251.868 274.005 270.535 273.738 275.868C273.472 281.068 277.338 280.002 282.405 273.335C289.738 263.735 294.938 261.868 312.938 262.002C326.538 262.002 329.738 262.535 341.605 266.402C389.605 282.268 407.205 305.202 409.738 355.202C412.272 404.535 394.672 469.868 368.805 507.335L361.738 517.468L359.072 512.668C357.472 510.002 353.605 503.068 350.405 497.202C338.005 474.668 328.138 467.868 317.338 474.535C311.738 477.868 309.072 482.135 306.938 491.468C304.005 503.602 304.272 506.002 308.938 507.735C312.272 508.802 313.872 510.935 317.072 518.135C319.338 523.068 323.738 532.668 326.938 539.468L332.805 551.735L327.872 556.002C303.338 577.602 266.138 588.535 240.272 581.868C215.472 575.335 195.205 553.468 184.138 520.935C176.938 499.735 174.938 484.535 174.938 450.535C174.938 414.268 177.472 393.602 186.405 358.268C198.272 310.935 211.872 278.802 230.138 254.402C261.738 212.268 296.138 196.535 334.805 206.135Z" fill="white"/>
<path d="M841.339 161.869C826.672 165.069 813.205 172.669 796.672 186.802C748.672 228.135 702.405 341.069 689.605 448.535C686.405 474.402 686.405 514.935 689.472 532.535C695.605 566.935 707.738 592.269 727.472 611.869C750.005 634.402 776.939 640.669 809.872 631.069C832.272 624.535 853.472 611.202 873.605 590.669C879.472 584.802 884.539 579.869 885.072 579.869C885.472 579.869 888.672 584.002 892.005 589.069C906.005 610.135 922.272 625.469 938.939 633.335C950.005 638.669 961.472 638.669 971.739 633.469C978.272 630.269 979.605 628.802 985.205 618.535C995.872 599.335 995.339 593.469 983.739 597.602C971.205 602.002 961.739 599.602 949.605 588.935C942.005 582.269 929.472 566.802 918.805 551.202L911.072 539.735L924.539 513.469C944.672 474.135 956.005 443.069 964.672 403.202C977.872 342.669 976.939 299.069 962.005 269.202C956.539 258.535 944.939 245.869 933.605 238.535C928.805 235.469 924.939 232.002 924.939 230.935C924.939 230.002 926.139 226.802 927.605 223.869C931.739 215.602 931.072 212.669 921.605 198.402C911.339 183.069 902.405 175.069 886.939 167.735C871.205 160.135 857.205 158.402 841.339 161.869ZM874.939 209.335C883.605 211.869 901.739 220.802 900.672 222.002C900.272 222.269 895.872 221.602 890.805 220.535C852.405 212.402 824.539 228.269 815.205 263.735C811.072 279.602 810.805 282.535 813.872 282.535C815.205 282.535 817.339 280.802 818.672 278.669C822.139 272.669 829.739 266.802 835.872 265.069C846.139 262.402 865.072 264.269 881.339 269.735C902.805 276.802 913.339 282.802 925.072 294.535C936.405 305.869 941.472 315.869 945.605 335.202C948.672 349.469 948.672 383.202 945.605 403.202C940.539 436.935 927.472 476.135 914.139 498.669C906.805 510.935 901.339 518.535 899.739 518.535C899.205 518.535 895.872 513.202 892.405 506.669C876.139 475.735 863.872 467.869 851.739 480.402C848.539 483.735 846.805 487.335 844.805 495.202C843.472 500.935 842.272 506.002 842.272 506.669C842.272 507.335 844.272 508.802 846.672 510.002C852.139 512.935 853.339 514.535 857.739 525.869C859.739 530.935 863.339 539.202 865.872 544.135C868.272 549.069 870.272 553.735 870.272 554.402C870.272 556.802 851.872 569.602 840.272 575.335C799.205 595.202 761.472 588.269 738.938 556.669C721.072 531.602 712.672 498.002 712.805 452.535C712.805 408.802 720.138 368.402 736.938 319.202C749.472 282.535 762.405 260.935 785.472 237.869C793.605 229.735 803.739 221.202 808.005 218.669C829.205 206.269 852.539 202.935 874.939 209.335Z" fill="white"/>
</svg>
